<svg xmlns="http://www.w3.org/2000/svg" viewBox="0 0 97.5 97.5" x="0px" y="0px">
    <path d="M50,1.25A48.75,48.75,0,1,0,98.75,50,48.75,48.75,0,0,0,50,1.25Zm2.43,73a1.21,1.21,0,0,1-.75,1.12,1.18,1.18,0,0,1-.46.09,1.21,1.21,0,0,1-.86-.36L33.72,58.5h-8a4.86,4.86,0,0,1-4.86-4.86V46.36a4.86,4.86,0,0,1,4.86-4.86h8L50.36,24.86a1.21,1.21,0,0,1,2.07.86Zm6.78-14.8a1.19,1.19,0,0,1-.71.23,1.21,1.21,0,0,1-.71-2.2c2-1.44,4.36-3.92,4.36-7.52s-2.37-6.07-4.36-7.52a1.21,1.21,0,1,1,1.43-2C62.66,43,64.57,46.4,64.57,50S62.66,57,59.21,59.48Zm4.92,6a1.21,1.21,0,1,1-1.55-1.87c4.16-3.44,6.84-8.79,6.84-13.63s-2.69-10.2-6.84-13.63a1.21,1.21,0,0,1,1.55-1.87c4.69,3.87,7.72,10,7.72,15.5S68.82,61.62,64.13,65.5Zm6.09,4.83a1.21,1.21,0,0,1-1.6-1.83A24.45,24.45,0,0,0,76.71,50a24.44,24.44,0,0,0-8.08-18.51,1.21,1.21,0,1,1,1.6-1.83A26.87,26.87,0,0,1,79.13,50,26.87,26.87,0,0,1,70.22,70.34Z"
          transform="translate(-1.25 -1.25)"/>
</svg>