<svg xmlns="http://www.w3.org/2000/svg" viewBox="0 0 97.5 97.5" x="0px" y="0px">
    <path d="M50,1.25A48.75,48.75,0,1,0,98.75,50,48.75,48.75,0,0,0,50,1.25ZM22.69,46.37a4.86,4.86,0,0,1,4.86-4.86h8L52.18,24.88a1.21,1.21,0,0,1,2.07.86V39.51l-19,19h-7.7a4.86,4.86,0,0,1-4.86-4.86ZM54.25,74.29a1.21,1.21,0,0,1-2.07.86l-9.92-9.92,12-12ZM61,59.49a1.21,1.21,0,0,1-1.42-2C61.59,56.08,64,53.61,64,50a8.1,8.1,0,0,0-1.65-4.84L64,43.44A10.71,10.71,0,0,1,66.39,50C66.39,53.62,64.49,57,61,59.49Zm15.57-32L28,76a2.48,2.48,0,0,1-3.4,0,2.41,2.41,0,0,1,0-3.46L73.17,24a2.43,2.43,0,0,1,3.43,3.43Z"
          transform="translate(-1.25 -1.25)"/>
</svg>