<svg xmlns="http://www.w3.org/2000/svg" viewBox="0 0 97.5 97.5" x="0px" y="0px">
    <path d="M29.65,53.26l-2.4.38a23.07,23.07,0,0,0,18.44,19l.45-2.39A20.63,20.63,0,0,1,29.65,53.26Z"
          transform="translate(-1.25 -1.25)"/>
    <circle cx="48.75" cy="48.75" r="1.21"/>
    <path d="M39.23,51.73l-2.4.38a13.36,13.36,0,0,0,10.68,11L48,60.73A10.93,10.93,0,0,1,39.23,51.73Z"
          transform="translate(-1.25 -1.25)"/>
    <path d="M50,42.72A7.28,7.28,0,1,0,57.28,50,7.29,7.29,0,0,0,50,42.72Zm0,12.14A4.86,4.86,0,1,1,54.86,50,4.86,4.86,0,0,1,50,54.86Z"
          transform="translate(-1.25 -1.25)"/>
    <path d="M34.44,52.49l-2.4.38a18.21,18.21,0,0,0,14.56,15L47,65.49A15.78,15.78,0,0,1,34.44,52.49Z"
          transform="translate(-1.25 -1.25)"/>
    <path d="M52.5,36.89,52,39.27a10.92,10.92,0,0,1,8.73,9l2.4-.38A13.36,13.36,0,0,0,52.5,36.89Z"
          transform="translate(-1.25 -1.25)"/>
    <path d="M50,1.25A48.75,48.75,0,1,0,98.75,50,48.75,48.75,0,0,0,50,1.25Zm0,77.88A29.13,29.13,0,1,1,79.13,50,29.17,29.17,0,0,1,50,79.13Z"
          transform="translate(-1.25 -1.25)"/>
    <path d="M54.31,27.36l-.45,2.38a20.64,20.64,0,0,1,16.49,17l2.4-.38A23.06,23.06,0,0,0,54.31,27.36Z"
          transform="translate(-1.25 -1.25)"/>
    <path d="M53.4,32.12,53,34.51a15.78,15.78,0,0,1,12.61,13l2.4-.38A18.22,18.22,0,0,0,53.4,32.12Z"
          transform="translate(-1.25 -1.25)"/>
</svg>