<svg xmlns="http://www.w3.org/2000/svg" viewBox="0 0 97.5 97.5" x="0px" y="0px">
    <path d="M51.21,47.57a6.07,6.07,0,1,0,6.07,6.07A6.08,6.08,0,0,0,51.21,47.57Zm0,9.71a3.64,3.64,0,1,1,3.64-3.64A3.65,3.65,0,0,1,51.21,57.28Z"
          transform="translate(-1.25 -1.25)"/>
    <path d="M50,1.25A48.75,48.75,0,1,0,98.75,50,48.75,48.75,0,0,0,50,1.25ZM67,37.86H60.93a1.21,1.21,0,1,0,0,2.43H67v2.43H60.93a1.21,1.21,0,0,0,0,2.43H67v6.07A13.37,13.37,0,0,1,53.64,64.57H52.43v2.5a10.94,10.94,0,0,1,9.71,10.6A1.21,1.21,0,0,1,61,79.13H41.5a1.21,1.21,0,0,1-1.21-1.21A10.94,10.94,0,0,1,50,67.07v-2.5H46.36A13.37,13.37,0,0,1,33,51.21V45.14H48.79a1.21,1.21,0,0,0,0-2.43H33V40.29H48.79a1.21,1.21,0,1,0,0-2.43H33V35.43H48.79a1.21,1.21,0,0,0,0-2.43H33.07A13.37,13.37,0,0,1,46.36,20.87h7.28A13.37,13.37,0,0,1,66.93,33h-6a1.21,1.21,0,0,0,0,2.43H67Z"
          transform="translate(-1.25 -1.25)"/>
</svg>