<svg xmlns="http://www.w3.org/2000/svg" viewBox="0 0 97.5 97.5" x="0px" y="0px">
    <path d="M46.6,47.34a6.07,6.07,0,1,0,4.29,1.78A6,6,0,0,0,46.6,47.34Z" transform="translate(-1.25 -1.25)"/>
    <path d="M30.29,62.85a1.21,1.21,0,0,0-1.72,1.72l6.87,6.87a1.21,1.21,0,0,0,1.72-1.72Z"
          transform="translate(-1.25 -1.25)"/>
    <path d="M50,1.25A48.75,48.75,0,1,0,98.75,50,48.75,48.75,0,0,0,50,1.25ZM78.34,32.58a1.21,1.21,0,1,1-1.72,1.72l-1.57-1.57-1.92,1.93,1.57,1.57A1.21,1.21,0,1,1,73,37.94l-1.57-1.57-2.78,2.78a1.21,1.21,0,0,1-1.72,0l-.36-.36L58.4,47a11.71,11.71,0,0,1,.93,10.88,10.24,10.24,0,0,1-7.14,5.73c.8,5.26-.84,8.66-2.44,10.63a12.85,12.85,0,0,1-10.14,4.5,18.34,18.34,0,0,1-12.76-5.55c-5.1-5.1-6.91-12.43-4.5-18.25,2.23-5.38,7.5-8.08,14.08-7.09a10.16,10.16,0,0,1,10.15-8.07A12.6,12.6,0,0,1,53,41.6l8.16-8.16-.36-.36a1.21,1.21,0,0,1,0-1.72l2.78-2.78L62.06,27a1.21,1.21,0,0,1,1.72-1.72l1.57,1.57,1.93-1.93L65.7,23.38a1.21,1.21,0,0,1,1.72-1.72L69,23.23l1.57-1.57a1.21,1.21,0,0,1,1.72,0l6.07,6.07a1.21,1.21,0,0,1,0,1.72L76.77,31Z"
          transform="translate(-1.25 -1.25)"/>
</svg>